<svg xmlns="http://www.w3.org/2000/svg" xmlns:xlink="http://www.w3.org/1999/xlink" viewBox="0 0 846.95 138.76"><defs><style>.cls-1{fill:url(#New_Gradient_Swatch_2);}.cls-2{fill:url(#New_Gradient_Swatch_2-2);}.cls-3{fill:url(#New_Gradient_Swatch_2-3);}.cls-4{fill:url(#New_Gradient_Swatch_2-4);}.cls-5{fill:url(#New_Gradient_Swatch_2-5);}.cls-6{fill:url(#New_Gradient_Swatch_2-6);}.cls-7{fill:url(#New_Gradient_Swatch_2-7);}.cls-8{fill:url(#New_Gradient_Swatch_2-8);}.cls-9{fill:url(#New_Gradient_Swatch_2-9);}.cls-10{fill:url(#New_Gradient_Swatch_2-10);}.cls-11{fill:url(#New_Gradient_Swatch_2-11);}.cls-12{fill:url(#New_Gradient_Swatch_2-12);}.cls-13{fill:url(#New_Gradient_Swatch_2-13);}.cls-14{fill:url(#New_Gradient_Swatch_2-14);}.cls-15{fill:url(#New_Gradient_Swatch_2-15);}.cls-16{fill:url(#New_Gradient_Swatch_2-16);}.cls-17{fill:url(#New_Gradient_Swatch_2-17);}.cls-18{fill:url(#New_Gradient_Swatch_2-18);}.cls-19{fill:url(#New_Gradient_Swatch_2-19);}.cls-20{fill:url(#New_Gradient_Swatch_2-20);}.cls-21{fill:url(#New_Gradient_Swatch_2-21);}.cls-22{fill:url(#New_Gradient_Swatch_2-22);}.cls-23{fill:url(#New_Gradient_Swatch_2-23);}.cls-24{fill:url(#New_Gradient_Swatch_2-24);}.cls-25{fill:url(#New_Gradient_Swatch_2-25);}.cls-26{fill:url(#New_Gradient_Swatch_2-26);}.cls-27{fill:url(#New_Gradient_Swatch_2-27);}.cls-28{fill:url(#New_Gradient_Swatch_2-28);}.cls-29{fill:url(#New_Gradient_Swatch_2-29);}.cls-30{fill:url(#New_Gradient_Swatch_2-30);}.cls-31{fill:url(#New_Gradient_Swatch_2-31);}.cls-32{fill:url(#New_Gradient_Swatch_2-32);}.cls-33{fill:url(#New_Gradient_Swatch_2-33);}.cls-34{fill:url(#New_Gradient_Swatch_2-34);}.cls-35{fill:url(#New_Gradient_Swatch_2-35);}.cls-36{fill:url(#New_Gradient_Swatch_2-36);}.cls-37{fill:url(#New_Gradient_Swatch_2-37);}.cls-38{fill:url(#New_Gradient_Swatch_2-38);}.cls-39{fill:url(#New_Gradient_Swatch_2-39);}.cls-40{fill:url(#New_Gradient_Swatch_2-40);}.cls-41{fill:url(#New_Gradient_Swatch_2-41);}.cls-42{fill:url(#New_Gradient_Swatch_2-42);}.cls-43{fill:url(#New_Gradient_Swatch_2-43);}.cls-44{fill:url(#New_Gradient_Swatch_2-44);}.cls-45{fill:url(#New_Gradient_Swatch_2-45);}.cls-46{fill:url(#New_Gradient_Swatch_2-46);}.cls-47{fill:url(#New_Gradient_Swatch_2-47);}.cls-48{fill:url(#New_Gradient_Swatch_2-48);}.cls-49{fill:url(#New_Gradient_Swatch_2-49);}.cls-50{fill:url(#New_Gradient_Swatch_2-50);}.cls-51{fill:url(#New_Gradient_Swatch_2-51);}.cls-52{fill:url(#New_Gradient_Swatch_2-52);}.cls-53{fill:url(#New_Gradient_Swatch_2-53);}.cls-54{fill:url(#New_Gradient_Swatch_2-54);}.cls-55{fill:url(#New_Gradient_Swatch_2-55);}.cls-56{fill:url(#New_Gradient_Swatch_2-56);}.cls-57{fill:url(#New_Gradient_Swatch_2-57);}.cls-58{fill:url(#New_Gradient_Swatch_2-58);}.cls-59{fill:url(#New_Gradient_Swatch_2-59);}.cls-60{fill:url(#New_Gradient_Swatch_2-60);}.cls-61{fill:url(#New_Gradient_Swatch_2-61);}.cls-62{fill:url(#New_Gradient_Swatch_2-62);}.cls-63{fill:url(#New_Gradient_Swatch_2-63);}.cls-64{fill:url(#New_Gradient_Swatch_2-64);}.cls-65{fill:url(#New_Gradient_Swatch_2-65);}.cls-66{fill:url(#New_Gradient_Swatch_2-66);}.cls-67{fill:url(#New_Gradient_Swatch_2-67);}.cls-68{fill:url(#New_Gradient_Swatch_2-68);}.cls-69{fill:url(#New_Gradient_Swatch_2-69);}.cls-70{fill:url(#New_Gradient_Swatch_2-70);}.cls-71{fill:url(#New_Gradient_Swatch_2-71);}.cls-72{fill:url(#New_Gradient_Swatch_2-72);}.cls-73{fill:url(#New_Gradient_Swatch_2-73);}.cls-74{fill:url(#New_Gradient_Swatch_2-74);}.cls-75{fill:url(#New_Gradient_Swatch_2-75);}.cls-76{fill:url(#New_Gradient_Swatch_2-76);}</style><linearGradient id="New_Gradient_Swatch_2" x1="166.41" y1="738.06" x2="153.18" y2="103.19" gradientUnits="userSpaceOnUse"><stop offset="0" stop-color="#462523"/><stop offset="0.22" stop-color="#cb9b51"/><stop offset="0.44" stop-color="#f6e27a"/><stop offset="0.5" stop-color="#f6f2c0"/><stop offset="0.56" stop-color="#f6e27a"/><stop offset="0.78" stop-color="#cb9b51"/><stop offset="1" stop-color="#462523"/></linearGradient><linearGradient id="New_Gradient_Swatch_2-2" x1="168.87" y1="737.95" x2="155.63" y2="103.09" xlink:href="#New_Gradient_Swatch_2"/><linearGradient id="New_Gradient_Swatch_2-3" x1="168.97" y1="737.95" x2="155.73" y2="103.09" xlink:href="#New_Gradient_Swatch_2"/><linearGradient id="New_Gradient_Swatch_2-4" x1="118.61" y1="702.28" x2="117.41" y2="279.84" xlink:href="#New_Gradient_Swatch_2"/><linearGradient id="New_Gradient_Swatch_2-5" x1="130.67" y1="702.25" x2="129.46" y2="279.81" xlink:href="#New_Gradient_Swatch_2"/><linearGradient id="New_Gradient_Swatch_2-6" x1="127.16" y1="702.26" x2="125.95" y2="279.82" xlink:href="#New_Gradient_Swatch_2"/><linearGradient id="New_Gradient_Swatch_2-7" x1="121.87" y1="702.27" x2="120.66" y2="279.83" xlink:href="#New_Gradient_Swatch_2"/><linearGradient id="New_Gradient_Swatch_2-8" x1="117.48" y1="702.28" x2="116.28" y2="279.84" xlink:href="#New_Gradient_Swatch_2"/><linearGradient id="New_Gradient_Swatch_2-9" x1="114.47" y1="702.29" x2="113.26" y2="279.85" xlink:href="#New_Gradient_Swatch_2"/><linearGradient id="New_Gradient_Swatch_2-10" x1="109.29" y1="702.31" x2="108.09" y2="279.87" xlink:href="#New_Gradient_Swatch_2"/><linearGradient id="New_Gradient_Swatch_2-11" x1="108.49" y1="702.31" x2="107.29" y2="279.87" xlink:href="#New_Gradient_Swatch_2"/><linearGradient id="New_Gradient_Swatch_2-12" x1="102.64" y1="702.33" x2="101.44" y2="279.89" xlink:href="#New_Gradient_Swatch_2"/><linearGradient id="New_Gradient_Swatch_2-13" x1="103.95" y1="702.32" x2="102.74" y2="279.88" xlink:href="#New_Gradient_Swatch_2"/><linearGradient id="New_Gradient_Swatch_2-14" x1="97.58" y1="702.34" x2="96.38" y2="279.9" xlink:href="#New_Gradient_Swatch_2"/><linearGradient id="New_Gradient_Swatch_2-15" x1="100.89" y1="702.33" x2="99.69" y2="279.89" xlink:href="#New_Gradient_Swatch_2"/><linearGradient id="New_Gradient_Swatch_2-16" x1="94.15" y1="702.35" x2="92.95" y2="279.91" xlink:href="#New_Gradient_Swatch_2"/><linearGradient id="New_Gradient_Swatch_2-17" x1="99.39" y1="702.34" x2="98.19" y2="279.89" xlink:href="#New_Gradient_Swatch_2"/><linearGradient id="New_Gradient_Swatch_2-18" x1="92.4" y1="702.36" x2="91.2" y2="279.91" xlink:href="#New_Gradient_Swatch_2"/><linearGradient id="New_Gradient_Swatch_2-19" x1="99.29" y1="702.34" x2="98.09" y2="279.89" xlink:href="#New_Gradient_Swatch_2"/><linearGradient id="New_Gradient_Swatch_2-20" x1="92.25" y1="702.36" x2="91.05" y2="279.91" xlink:href="#New_Gradient_Swatch_2"/><linearGradient id="New_Gradient_Swatch_2-21" x1="100.66" y1="702.33" x2="99.46" y2="279.89" xlink:href="#New_Gradient_Swatch_2"/><linearGradient id="New_Gradient_Swatch_2-22" x1="93.75" y1="702.35" x2="92.55" y2="279.91" xlink:href="#New_Gradient_Swatch_2"/><linearGradient id="New_Gradient_Swatch_2-23" x1="103.63" y1="702.32" x2="102.43" y2="279.88" xlink:href="#New_Gradient_Swatch_2"/><linearGradient id="New_Gradient_Swatch_2-24" x1="97.23" y1="702.34" x2="96.02" y2="279.9" xlink:href="#New_Gradient_Swatch_2"/><linearGradient id="New_Gradient_Swatch_2-25" x1="108.25" y1="702.31" x2="107.04" y2="279.87" xlink:href="#New_Gradient_Swatch_2"/><linearGradient id="New_Gradient_Swatch_2-26" x1="102.7" y1="702.33" x2="101.5" y2="279.89" xlink:href="#New_Gradient_Swatch_2"/><linearGradient id="New_Gradient_Swatch_2-27" x1="114.56" y1="702.29" x2="113.35" y2="279.85" xlink:href="#New_Gradient_Swatch_2"/><linearGradient id="New_Gradient_Swatch_2-28" x1="110.21" y1="702.3" x2="109" y2="279.86" xlink:href="#New_Gradient_Swatch_2"/><linearGradient id="New_Gradient_Swatch_2-29" x1="122.06" y1="702.27" x2="120.86" y2="279.83" xlink:href="#New_Gradient_Swatch_2"/><linearGradient id="New_Gradient_Swatch_2-30" x1="231.33" y1="735.86" x2="187.4" y2="254.44" xlink:href="#New_Gradient_Swatch_2"/><linearGradient id="New_Gradient_Swatch_2-31" x1="210.67" y1="737.74" x2="166.75" y2="256.33" xlink:href="#New_Gradient_Swatch_2"/><linearGradient id="New_Gradient_Swatch_2-32" x1="213.63" y1="737.47" x2="169.7" y2="256.06" xlink:href="#New_Gradient_Swatch_2"/><linearGradient id="New_Gradient_Swatch_2-33" x1="219.82" y1="736.91" x2="175.89" y2="255.49" xlink:href="#New_Gradient_Swatch_2"/><linearGradient id="New_Gradient_Swatch_2-34" x1="223.72" y1="736.55" x2="179.79" y2="255.14" xlink:href="#New_Gradient_Swatch_2"/><linearGradient id="New_Gradient_Swatch_2-35" x1="227.74" y1="736.18" x2="183.82" y2="254.77" xlink:href="#New_Gradient_Swatch_2"/><linearGradient id="New_Gradient_Swatch_2-36" x1="232.47" y1="735.75" x2="188.54" y2="254.34" xlink:href="#New_Gradient_Swatch_2"/><linearGradient id="New_Gradient_Swatch_2-37" x1="234.35" y1="735.58" x2="190.42" y2="254.17" xlink:href="#New_Gradient_Swatch_2"/><linearGradient id="New_Gradient_Swatch_2-38" x1="239.81" y1="735.08" x2="195.88" y2="253.67" xlink:href="#New_Gradient_Swatch_2"/><linearGradient id="New_Gradient_Swatch_2-39" x1="239.61" y1="735.1" x2="195.68" y2="253.69" xlink:href="#New_Gradient_Swatch_2"/><linearGradient id="New_Gradient_Swatch_2-40" x1="245.67" y1="734.55" x2="201.74" y2="253.13" xlink:href="#New_Gradient_Swatch_2"/><linearGradient id="New_Gradient_Swatch_2-41" x1="243.46" y1="734.75" x2="199.53" y2="253.34" xlink:href="#New_Gradient_Swatch_2"/><linearGradient id="New_Gradient_Swatch_2-42" x1="249.96" y1="734.16" x2="206.03" y2="252.74" xlink:href="#New_Gradient_Swatch_2"/><linearGradient id="New_Gradient_Swatch_2-43" x1="245.81" y1="734.53" x2="201.88" y2="253.12" xlink:href="#New_Gradient_Swatch_2"/><linearGradient id="New_Gradient_Swatch_2-44" x1="252.63" y1="733.91" x2="208.7" y2="252.5" xlink:href="#New_Gradient_Swatch_2"/><linearGradient id="New_Gradient_Swatch_2-45" x1="246.65" y1="734.46" x2="202.73" y2="253.04" xlink:href="#New_Gradient_Swatch_2"/><linearGradient id="New_Gradient_Swatch_2-46" x1="253.63" y1="733.82" x2="209.7" y2="252.41" xlink:href="#New_Gradient_Swatch_2"/><linearGradient id="New_Gradient_Swatch_2-47" x1="246.1" y1="734.51" x2="202.17" y2="253.09" xlink:href="#New_Gradient_Swatch_2"/><linearGradient id="New_Gradient_Swatch_2-48" x1="253.08" y1="733.87" x2="209.15" y2="252.46" xlink:href="#New_Gradient_Swatch_2"/><linearGradient id="New_Gradient_Swatch_2-49" x1="243.96" y1="734.7" x2="200.03" y2="253.29" xlink:href="#New_Gradient_Swatch_2"/><linearGradient id="New_Gradient_Swatch_2-50" x1="250.64" y1="734.09" x2="206.71" y2="252.68" xlink:href="#New_Gradient_Swatch_2"/><linearGradient id="New_Gradient_Swatch_2-51" x1="240.15" y1="735.05" x2="196.22" y2="253.64" xlink:href="#New_Gradient_Swatch_2"/><linearGradient id="New_Gradient_Swatch_2-52" x1="246.12" y1="734.51" x2="202.19" y2="253.09" xlink:href="#New_Gradient_Swatch_2"/><linearGradient id="New_Gradient_Swatch_2-53" x1="234.59" y1="735.56" x2="190.66" y2="254.15" xlink:href="#New_Gradient_Swatch_2"/><linearGradient id="New_Gradient_Swatch_2-54" x1="239.5" y1="735.11" x2="195.58" y2="253.7" xlink:href="#New_Gradient_Swatch_2"/><linearGradient id="New_Gradient_Swatch_2-55" x1="221.35" y1="736.77" x2="177.42" y2="255.35" xlink:href="#New_Gradient_Swatch_2"/><linearGradient id="New_Gradient_Swatch_2-56" x1="82.39" y1="-52.87" x2="71.56" y2="68.09" xlink:href="#New_Gradient_Swatch_2"/><linearGradient id="New_Gradient_Swatch_2-57" x1="58.18" y1="-55.03" x2="47.35" y2="65.92" xlink:href="#New_Gradient_Swatch_2"/><linearGradient id="New_Gradient_Swatch_2-58" x1="108.44" y1="-50.53" x2="97.61" y2="70.42" xlink:href="#New_Gradient_Swatch_2"/><linearGradient id="New_Gradient_Swatch_2-59" x1="160.25" y1="953.54" x2="145.93" y2="-195.09" xlink:href="#New_Gradient_Swatch_2"/><linearGradient id="New_Gradient_Swatch_2-60" x1="164.57" y1="953.48" x2="150.25" y2="-195.14" xlink:href="#New_Gradient_Swatch_2"/><linearGradient id="New_Gradient_Swatch_2-61" x1="169.16" y1="953.43" x2="154.84" y2="-195.2" xlink:href="#New_Gradient_Swatch_2"/><linearGradient id="New_Gradient_Swatch_2-62" x1="174.59" y1="953.36" x2="160.27" y2="-195.26" xlink:href="#New_Gradient_Swatch_2"/><linearGradient id="New_Gradient_Swatch_2-63" x1="178.14" y1="953.31" x2="163.82" y2="-195.31" xlink:href="#New_Gradient_Swatch_2"/><linearGradient id="New_Gradient_Swatch_2-64" x1="161.23" y1="953.52" x2="146.91" y2="-195.1" xlink:href="#New_Gradient_Swatch_2"/><linearGradient id="New_Gradient_Swatch_2-65" x1="165.98" y1="953.47" x2="151.66" y2="-195.16" xlink:href="#New_Gradient_Swatch_2"/><linearGradient id="New_Gradient_Swatch_2-66" x1="170.59" y1="953.41" x2="156.27" y2="-195.21" xlink:href="#New_Gradient_Swatch_2"/><linearGradient id="New_Gradient_Swatch_2-67" x1="175.27" y1="953.35" x2="160.95" y2="-195.27" xlink:href="#New_Gradient_Swatch_2"/><linearGradient id="New_Gradient_Swatch_2-68" x1="301.51" y1="837.86" x2="296.77" y2="184.32" xlink:href="#New_Gradient_Swatch_2"/><linearGradient id="New_Gradient_Swatch_2-69" x1="370.53" y1="837.35" x2="365.78" y2="183.82" xlink:href="#New_Gradient_Swatch_2"/><linearGradient id="New_Gradient_Swatch_2-70" x1="451.66" y1="836.77" x2="446.91" y2="183.23" xlink:href="#New_Gradient_Swatch_2"/><linearGradient id="New_Gradient_Swatch_2-71" x1="534.37" y1="836.16" x2="529.62" y2="182.63" xlink:href="#New_Gradient_Swatch_2"/><linearGradient id="New_Gradient_Swatch_2-72" x1="593.22" y1="835.74" x2="588.47" y2="182.2" xlink:href="#New_Gradient_Swatch_2"/><linearGradient id="New_Gradient_Swatch_2-73" x1="659.38" y1="835.26" x2="654.63" y2="181.72" xlink:href="#New_Gradient_Swatch_2"/><linearGradient id="New_Gradient_Swatch_2-74" x1="746.4" y1="834.62" x2="741.65" y2="181.09" xlink:href="#New_Gradient_Swatch_2"/><linearGradient id="New_Gradient_Swatch_2-75" x1="825.12" y1="834.05" x2="820.37" y2="180.51" xlink:href="#New_Gradient_Swatch_2"/><linearGradient id="New_Gradient_Swatch_2-76" x1="902.15" y1="833.49" x2="897.41" y2="179.95" xlink:href="#New_Gradient_Swatch_2"/></defs><title>Logo2</title><g id="OBJECTS"><path class="cls-1" d="M197.63,560.49l-13.43,5.42-16.14,6.53h0l-.09,0-.13,0-.38.14-.23.06-.33.08-.26,0-.31,0-.28,0h-.29l-.5,0h-.07c-.15,0-.29,0-.44-.06l-.14,0-.06,0-.32-.08-.17,0-.39-.14-.13,0-44.66-18a6.07,6.07,0,0,1-3.5-7.69,5.92,5.92,0,0,1,7.75-3.37l39.7,16,.66.26a6,6,0,0,0,4.53,0l35.88-14.49,7.48-3a1,1,0,0,0,.06-1.79L170,521.71a10.51,10.51,0,0,0-8.61,0l-43.27,19.52a8.12,8.12,0,0,0-.31,15.17l44.65,18a7.91,7.91,0,0,0,1.65.52l.11,0,.59.08.17,0c.24,0,.48,0,.72,0h0a8,8,0,0,0,3-.6L209.67,558c2-.81,2.33-1.52,2.33-3.31Zm-31.89-2.26ZM118.84,541h0m1.38-.24-.14,0,.14,0m-.69.09-.1,0,.1,0" transform="translate(-87.86 -470.62)"/><path class="cls-2" d="M165.73,570.14a6.87,6.87,0,0,1-1.89-.28l-.06,0-43-17.42a.7.7,0,0,1-.38-.9.69.69,0,0,1,.9-.38l43,17.41a5.11,5.11,0,0,0,3,0l41.54-16.75a.69.69,0,0,1,.89.38.7.7,0,0,1-.38.9l-41.57,16.76-.06,0a6.88,6.88,0,0,1-1.9.28" transform="translate(-87.86 -470.62)"/><path class="cls-3" d="M165.73,565.36a6.87,6.87,0,0,1-1.89-.28l-.06,0-43-17.42a.69.69,0,1,1,.52-1.27l43,17.4a5.11,5.11,0,0,0,3,0L208.75,547a.67.67,0,0,1,.89.38.69.69,0,0,1-.38.89l-41.57,16.76-.06,0a6.88,6.88,0,0,1-1.9.28" transform="translate(-87.86 -470.62)"/><path class="cls-4" d="M116.37,499.5a11.7,11.7,0,0,0-3.49,6.34,10.15,10.15,0,0,0,10.32-8.73,11.7,11.7,0,0,0-6.83,2.39" transform="translate(-87.86 -470.62)"/><path class="cls-5" d="M132.27,592.82a12.38,12.38,0,0,1,2.23,6.75s-4.93-1.54-7-5a8.58,8.58,0,0,1-.92-6.78,20.35,20.35,0,0,1,5.73,5" transform="translate(-87.86 -470.62)"/><path class="cls-6" d="M128.38,603.23a8.49,8.49,0,0,0,6.16-3.8,27.76,27.76,0,0,0-8.75-1.19,11.17,11.17,0,0,0-6.59,2.82c-.06,0,4.73,2.77,9.18,2.17" transform="translate(-87.86 -470.62)"/><path class="cls-7" d="M123.76,588.7a12.12,12.12,0,0,1,.76,6.87s-4.3-2.3-5.64-6a8.61,8.61,0,0,1,.42-6.71,18.58,18.58,0,0,1,4.46,5.81" transform="translate(-87.86 -470.62)"/><path class="cls-8" d="M118.05,598.09a8.38,8.38,0,0,0,6.53-2.64,24.84,24.84,0,0,0-8-2.61,11,11,0,0,0-6.81,1.61s4,3.47,8.28,3.64" transform="translate(-87.86 -470.62)"/><path class="cls-9" d="M116.48,583.28a11.88,11.88,0,0,1-.59,6.77s-3.65-2.95-4.26-6.74a8.64,8.64,0,0,1,1.65-6.43,17.82,17.82,0,0,1,3.2,6.4" transform="translate(-87.86 -470.62)"/><path class="cls-10" d="M109.25,591.39a8.17,8.17,0,0,0,6.72-1.45,23.38,23.38,0,0,0-7.15-3.88,10.91,10.91,0,0,0-6.86.39s3.21,4,7.29,4.94" transform="translate(-87.86 -470.62)"/><path class="cls-11" d="M110.48,576.77a11.92,11.92,0,0,1-1.8,6.47s-3-3.48-2.9-7.27a8.59,8.59,0,0,1,2.73-6,17,17,0,0,1,2,6.77" transform="translate(-87.86 -470.62)"/><path class="cls-12" d="M102,583.39a8.06,8.06,0,0,0,6.76-.24,22.18,22.18,0,0,0-6.21-5,10.71,10.71,0,0,0-6.74-.82s2.41,4.5,6.19,6.06" transform="translate(-87.86 -470.62)"/><path class="cls-13" d="M105.81,569.4a11.65,11.65,0,0,1-2.89,6s-2.29-3.9-1.57-7.59a8.41,8.41,0,0,1,3.69-5.33,16.92,16.92,0,0,1,.77,6.95" transform="translate(-87.86 -470.62)"/><path class="cls-14" d="M96.4,574.36a8,8,0,0,0,6.63.95,22,22,0,0,0-5.2-6,10.63,10.63,0,0,0-6.44-2s1.6,4.82,5,7" transform="translate(-87.86 -470.62)"/><path class="cls-15" d="M102.5,561.38a11.41,11.41,0,0,1-3.84,5.32s-1.58-4.21-.25-7.7a8.31,8.31,0,0,1,4.5-4.58,16.71,16.71,0,0,1-.41,7" transform="translate(-87.86 -470.62)"/><path class="cls-16" d="M92.46,564.56a8,8,0,0,0,6.32,2.1,22.08,22.08,0,0,0-4.08-6.76,10.73,10.73,0,0,0-6-3.09s.76,5,3.74,7.75" transform="translate(-87.86 -470.62)"/><path class="cls-17" d="M100.59,552.92A11.07,11.07,0,0,1,96,557.46s-.84-4.41,1-7.61a8.12,8.12,0,0,1,5.17-3.71,16.7,16.7,0,0,1-1.57,6.78" transform="translate(-87.86 -470.62)"/><path class="cls-18" d="M90.23,554.25a8,8,0,0,0,5.85,3.19,22.59,22.59,0,0,0-2.87-7.37A10.78,10.78,0,0,0,87.87,546s-.09,5.08,2.36,8.3" transform="translate(-87.86 -470.62)"/><path class="cls-19" d="M100.15,544.24a10.89,10.89,0,0,1-5.31,3.65s-.08-4.5,2.3-7.33a8,8,0,0,1,5.7-2.75,17.21,17.21,0,0,1-2.69,6.43" transform="translate(-87.86 -470.62)"/><path class="cls-20" d="M89.79,543.69a8,8,0,0,0,5.18,4.2,23.55,23.55,0,0,0-1.56-7.79,10.94,10.94,0,0,0-4.51-5s-1,5,.89,8.63" transform="translate(-87.86 -470.62)"/><path class="cls-21" d="M101.2,535.56a10.68,10.68,0,0,1-5.83,2.67s.7-4.48,3.54-6.87a7.83,7.83,0,0,1,6.08-1.72,17.53,17.53,0,0,1-3.79,5.92" transform="translate(-87.86 -470.62)"/><path class="cls-22" d="M91.16,533.16a8,8,0,0,0,4.34,5.09,24.4,24.4,0,0,0-.16-8,11,11,0,0,0-3.5-5.83s-1.87,4.83-.68,8.75" transform="translate(-87.86 -470.62)"/><path class="cls-23" d="M103.8,527.1a10.64,10.64,0,0,1-6.2,1.63s1.5-4.35,4.75-6.24a7.75,7.75,0,0,1,6.3-.66,18.59,18.59,0,0,1-4.85,5.27" transform="translate(-87.86 -470.62)"/><path class="cls-24" d="M94.41,522.92a8.05,8.05,0,0,0,3.31,5.85,25.87,25.87,0,0,0,1.34-8,11.22,11.22,0,0,0-2.3-6.46s-2.79,4.52-2.35,8.65" transform="translate(-87.86 -470.62)"/><path class="cls-25" d="M108,519.07a10.39,10.39,0,0,1-6.41.55s2.32-4.09,5.93-5.44a7.71,7.71,0,0,1,6.37.42,20.12,20.12,0,0,1-5.89,4.47" transform="translate(-87.86 -470.62)"/><path class="cls-26" d="M99.58,513.23a8,8,0,0,0,2.1,6.45,28.23,28.23,0,0,0,2.93-7.84,11.28,11.28,0,0,0-.91-6.91s-3.73,4.08-4.12,8.3" transform="translate(-87.86 -470.62)"/><path class="cls-27" d="M113.8,511.7a10.19,10.19,0,0,1-6.47-.55c-.06,0,3.16-3.72,7.07-4.48a7.6,7.6,0,0,1,6.29,1.49,22.16,22.16,0,0,1-6.89,3.54" transform="translate(-87.86 -470.62)"/><path class="cls-28" d="M106.73,504.36a8.11,8.11,0,0,0,.69,6.88,32.11,32.11,0,0,0,4.63-7.43,11.88,11.88,0,0,0,.68-7.15c0-.05-4.7,3.51-6,7.7" transform="translate(-87.86 -470.62)"/><path class="cls-29" d="M148.49,601.2l0-.78a47.49,47.49,0,0,1-18.82-2.82,50.06,50.06,0,0,1-16.18-9.66,52.58,52.58,0,0,1-17.4-34.68c-1-11.07.08-20.85,3.29-29.09A38.92,38.92,0,0,1,116.6,504l-.39-.67a39.66,39.66,0,0,0-17.59,20.61c-3.26,8.35-4.38,18.25-3.34,29.45a53.37,53.37,0,0,0,17.66,35.18,50.92,50.92,0,0,0,16.43,9.81,48.4,48.4,0,0,0,19.12,2.87" transform="translate(-87.86 -470.62)"/><path class="cls-30" d="M211.61,499.5a11.78,11.78,0,0,1,3.49,6.34,10.15,10.15,0,0,1-10.32-8.73,11.7,11.7,0,0,1,6.83,2.39" transform="translate(-87.86 -470.62)"/><path class="cls-31" d="M195.71,592.82a12.29,12.29,0,0,0-2.23,6.75s4.92-1.54,7-5a8.58,8.58,0,0,0,.92-6.78,20.35,20.35,0,0,0-5.73,5" transform="translate(-87.86 -470.62)"/><path class="cls-32" d="M199.6,603.23a8.47,8.47,0,0,1-6.16-3.8,27.76,27.76,0,0,1,8.75-1.19,11.17,11.17,0,0,1,6.59,2.82c.06,0-4.73,2.77-9.18,2.17" transform="translate(-87.86 -470.62)"/><path class="cls-33" d="M204.22,588.7a12,12,0,0,0-.76,6.87s4.3-2.3,5.64-6a8.58,8.58,0,0,0-.43-6.71,18.79,18.79,0,0,0-4.45,5.81" transform="translate(-87.86 -470.62)"/><path class="cls-34" d="M209.92,598.09a8.37,8.37,0,0,1-6.52-2.64,24.84,24.84,0,0,1,8-2.61,10.92,10.92,0,0,1,6.81,1.61c.06,0-4,3.47-8.28,3.64" transform="translate(-87.86 -470.62)"/><path class="cls-35" d="M211.5,583.28a11.88,11.88,0,0,0,.59,6.77s3.65-2.95,4.25-6.74a8.65,8.65,0,0,0-1.64-6.43,17.47,17.47,0,0,0-3.2,6.4" transform="translate(-87.86 -470.62)"/><path class="cls-36" d="M218.73,591.39a8.22,8.22,0,0,1-6.73-1.45,23.53,23.53,0,0,1,7.15-3.88,10.88,10.88,0,0,1,6.86.39c.05,0-3.2,4-7.28,4.94" transform="translate(-87.86 -470.62)"/><path class="cls-37" d="M217.49,576.77a12,12,0,0,0,1.81,6.47s3-3.48,2.9-7.27a8.53,8.53,0,0,0-2.74-6,17.4,17.4,0,0,0-2,6.77" transform="translate(-87.86 -470.62)"/><path class="cls-38" d="M226,583.39a8.07,8.07,0,0,1-6.76-.24,22.48,22.48,0,0,1,6.22-5,10.71,10.71,0,0,1,6.74-.82c.05,0-2.41,4.5-6.2,6.06" transform="translate(-87.86 -470.62)"/><path class="cls-39" d="M222.17,569.4a11.65,11.65,0,0,0,2.89,6s2.29-3.9,1.57-7.59a8.41,8.41,0,0,0-3.69-5.33,16.55,16.55,0,0,0-.77,6.95" transform="translate(-87.86 -470.62)"/><path class="cls-40" d="M231.58,574.36a8,8,0,0,1-6.63.95,22.1,22.1,0,0,1,5.19-6,10.66,10.66,0,0,1,6.45-2s-1.6,4.82-5,7" transform="translate(-87.86 -470.62)"/><path class="cls-41" d="M225.48,561.38a11.41,11.41,0,0,0,3.84,5.32s1.58-4.21.25-7.7a8.31,8.31,0,0,0-4.5-4.58,16.71,16.71,0,0,0,.41,7" transform="translate(-87.86 -470.62)"/><path class="cls-42" d="M235.52,564.56a8,8,0,0,1-6.32,2.1,22.08,22.08,0,0,1,4.08-6.76,10.73,10.73,0,0,1,6-3.09s-.77,5-3.74,7.75" transform="translate(-87.86 -470.62)"/><path class="cls-43" d="M227.38,552.92a11.13,11.13,0,0,0,4.65,4.54s.84-4.41-1-7.61a8.12,8.12,0,0,0-5.17-3.71,16.79,16.79,0,0,0,1.56,6.78" transform="translate(-87.86 -470.62)"/><path class="cls-44" d="M237.74,554.25a8,8,0,0,1-5.84,3.19,22.59,22.59,0,0,1,2.87-7.37A10.78,10.78,0,0,1,240.1,546s.1,5.08-2.36,8.3" transform="translate(-87.86 -470.62)"/><path class="cls-45" d="M227.83,544.24a10.89,10.89,0,0,0,5.31,3.65s.08-4.5-2.3-7.33a8,8,0,0,0-5.7-2.75,17,17,0,0,0,2.69,6.43" transform="translate(-87.86 -470.62)"/><path class="cls-46" d="M238.19,543.69a8,8,0,0,1-5.18,4.2,23.27,23.27,0,0,1,1.56-7.79,10.94,10.94,0,0,1,4.51-5s1,5-.89,8.63" transform="translate(-87.86 -470.62)"/><path class="cls-47" d="M226.78,535.56a10.66,10.66,0,0,0,5.82,2.67s-.69-4.48-3.53-6.87a7.83,7.83,0,0,0-6.08-1.72,17.53,17.53,0,0,0,3.79,5.92" transform="translate(-87.86 -470.62)"/><path class="cls-48" d="M236.82,533.16a8,8,0,0,1-4.34,5.09,24.4,24.4,0,0,1,.16-8,11,11,0,0,1,3.5-5.83s1.87,4.83.68,8.75" transform="translate(-87.86 -470.62)"/><path class="cls-49" d="M224.18,527.1a10.61,10.61,0,0,0,6.2,1.63s-1.5-4.35-4.75-6.24a7.75,7.75,0,0,0-6.3-.66,18.59,18.59,0,0,0,4.85,5.27" transform="translate(-87.86 -470.62)"/><path class="cls-50" d="M233.57,522.92a8.09,8.09,0,0,1-3.31,5.85,25.87,25.87,0,0,1-1.34-8,11.14,11.14,0,0,1,2.3-6.46s2.79,4.52,2.35,8.65" transform="translate(-87.86 -470.62)"/><path class="cls-51" d="M220,519.07a10.42,10.42,0,0,0,6.42.55c.05,0-2.32-4.09-5.93-5.44a7.7,7.7,0,0,0-6.37.42,20.16,20.16,0,0,0,5.88,4.47" transform="translate(-87.86 -470.62)"/><path class="cls-52" d="M228.4,513.23a8,8,0,0,1-2.1,6.45,28.23,28.23,0,0,1-2.93-7.84,11.41,11.41,0,0,1,.9-6.91s3.74,4.08,4.13,8.3" transform="translate(-87.86 -470.62)"/><path class="cls-53" d="M214.17,511.7a10.23,10.23,0,0,0,6.48-.55s-3.16-3.72-7.08-4.48a7.59,7.59,0,0,0-6.28,1.49,22.18,22.18,0,0,0,6.88,3.54" transform="translate(-87.86 -470.62)"/><path class="cls-54" d="M221.25,504.36a8.11,8.11,0,0,1-.69,6.88,32.11,32.11,0,0,1-4.63-7.43,11.88,11.88,0,0,1-.68-7.15c0-.05,4.69,3.51,6,7.7" transform="translate(-87.86 -470.62)"/><path class="cls-55" d="M179.49,601.2l0-.78a47.49,47.49,0,0,0,18.82-2.82,50.06,50.06,0,0,0,16.18-9.66,52.58,52.58,0,0,0,17.4-34.68c1-11.07-.08-20.85-3.29-29.09A39,39,0,0,0,211.38,504l.39-.67a39.75,39.75,0,0,1,17.59,20.61c3.25,8.35,4.38,18.25,3.34,29.45A53.37,53.37,0,0,1,215,588.52a51,51,0,0,1-16.43,9.81,48.43,48.43,0,0,1-19.12,2.87" transform="translate(-87.86 -470.62)"/><polygon class="cls-56" points="76.96 0 80.25 6.66 87.61 7.73 82.28 12.92 83.54 20.24 76.96 16.79 70.38 20.24 71.64 12.92 66.32 7.73 73.67 6.66 76.96 0"/><polygon class="cls-57" points="51.63 12.4 54.06 17.33 59.49 18.12 55.56 21.95 56.49 27.36 51.63 24.81 46.77 27.36 47.7 21.95 43.77 18.12 49.2 17.33 51.63 12.4"/><polygon class="cls-58" points="102.29 12.4 104.72 17.33 110.16 18.12 106.22 21.95 107.15 27.36 102.29 24.81 97.43 27.36 98.36 21.95 94.43 18.12 99.86 17.33 102.29 12.4"/><path class="cls-59" d="M157.28,595.44h-2.39v2.22h2.66v.67h-3.46v-6.16h3.32v.67h-2.52v1.95h2.39Z" transform="translate(-87.86 -470.62)"/><path class="cls-60" d="M158.47,597.36a2.83,2.83,0,0,0,1.43.4c.81,0,1.28-.43,1.28-1s-.33-.9-1.16-1.22c-1-.36-1.62-.88-1.62-1.75a1.77,1.77,0,0,1,2-1.67,2.72,2.72,0,0,1,1.36.31l-.22.64a2.44,2.44,0,0,0-1.17-.29c-.84,0-1.16.5-1.16.92,0,.58.38.86,1.23,1.19,1,.4,1.57.9,1.57,1.81s-.71,1.77-2.16,1.77a3.3,3.3,0,0,1-1.57-.39Z" transform="translate(-87.86 -470.62)"/><path class="cls-61" d="M164.25,592.85h-1.87v-.68h4.55v.68h-1.88v5.48h-.8Z" transform="translate(-87.86 -470.62)"/><path class="cls-62" d="M167.62,592.26a10.47,10.47,0,0,1,1.69-.13,3.49,3.49,0,0,1,2.49.77,2.81,2.81,0,0,1,.87,2.2,3.29,3.29,0,0,1-.89,2.4,3.81,3.81,0,0,1-2.72.88,14.27,14.27,0,0,1-1.44-.07Zm.79,5.44a6,6,0,0,0,.8,0,2.36,2.36,0,0,0,2.62-2.61,2.19,2.19,0,0,0-2.49-2.37,5,5,0,0,0-.93.08Z" transform="translate(-87.86 -470.62)"/><path class="cls-63" d="M173.17,597.85a.54.54,0,1,1,1.08,0,.54.54,0,1,1-1.08,0Z" transform="translate(-87.86 -470.62)"/><path class="cls-64" d="M155,609.28v-.49l.63-.62c1.51-1.44,2.2-2.2,2.21-3.1a1.06,1.06,0,0,0-1.18-1.16,2.05,2.05,0,0,0-1.26.5l-.26-.56a2.59,2.59,0,0,1,1.68-.6,1.67,1.67,0,0,1,1.82,1.72c0,1.1-.8,2-2.05,3.19l-.47.43v0h2.66v.67Z" transform="translate(-87.86 -470.62)"/><path class="cls-65" d="M163.66,606.25c0,2-.75,3.13-2.06,3.13-1.16,0-1.95-1.09-2-3s.85-3.08,2.06-3.08S163.66,604.36,163.66,606.25Zm-3.22.09c0,1.54.47,2.42,1.2,2.42s1.22-1,1.22-2.48-.38-2.41-1.21-2.41S160.44,604.72,160.44,606.34Z" transform="translate(-87.86 -470.62)"/><path class="cls-66" d="M164.4,609.28v-.49l.63-.62c1.52-1.44,2.2-2.2,2.21-3.1a1.06,1.06,0,0,0-1.18-1.16,2.08,2.08,0,0,0-1.26.5l-.25-.56a2.57,2.57,0,0,1,1.68-.6A1.66,1.66,0,0,1,168,605c0,1.1-.79,2-2,3.19l-.48.43v0h2.67v.67Z" transform="translate(-87.86 -470.62)"/><path class="cls-67" d="M169.08,609.28v-.49l.63-.62c1.52-1.44,2.2-2.2,2.21-3.1a1.06,1.06,0,0,0-1.18-1.16,2.11,2.11,0,0,0-1.26.5l-.25-.56a2.57,2.57,0,0,1,1.68-.6,1.66,1.66,0,0,1,1.81,1.72c0,1.1-.79,2-2,3.19l-.47.43v0h2.66v.67Z" transform="translate(-87.86 -470.62)"/><path class="cls-68" d="M297.76,524.14v10.07h25.47v19.34H297.76v11.58h28.95v20.49H272.06v-82h54.65v20.5Z" transform="translate(-87.86 -470.62)"/><path class="cls-69" d="M336.49,535.09a26.92,26.92,0,0,1,9.67-11.58,24.64,24.64,0,0,1,13.77-4,21.78,21.78,0,0,1,10.94,2.6,17.78,17.78,0,0,1,7,7.12V499.94h25.71v85.68H377.88v-8.91a17.72,17.72,0,0,1-7,7.12,21.78,21.78,0,0,1-10.94,2.6,24.71,24.71,0,0,1-13.77-4,27,27,0,0,1-9.67-11.58,47.07,47.07,0,0,1,0-35.77Zm38.84,9.78a9.49,9.49,0,0,0-13.66,0c-1.77,1.93-2.66,4.62-2.66,8.1s.89,6.18,2.66,8.1a9.49,9.49,0,0,0,13.66,0Q378,558.19,378,553C378,549.49,377.11,546.8,375.33,544.87Z" transform="translate(-87.86 -470.62)"/><path class="cls-70" d="M484.3,520.32v65.3H458.59v-10a23.13,23.13,0,0,1-8,7.53,23.67,23.67,0,0,1-12,2.89q-11.24,0-17.55-7.52t-6.31-20.38V520.32h25.59v34.62a10.45,10.45,0,0,0,2.49,7.35,9.59,9.59,0,0,0,13.38,0,10.62,10.62,0,0,0,2.43-7.35V520.32Z" transform="translate(-87.86 -470.62)"/><path class="cls-71" d="M550.29,515.46a7.49,7.49,0,0,0-4.4,1.09,6.05,6.05,0,0,0-2.09,3.77h9.39v21.42h-9.62v43.88h-25.7V541.74h-6.95V520.32h6.95q.23-12.74,8-19.74t21.94-7c1.08,0,2.85.08,5.33.24v21.87C551.79,515.53,550.83,515.46,550.29,515.46Z" transform="translate(-87.86 -470.62)"/><path class="cls-72" d="M573.44,582.38a29.86,29.86,0,0,1-12.32-11.64,37.63,37.63,0,0,1,0-35.54,29.92,29.92,0,0,1,12.32-11.64,40.77,40.77,0,0,1,35.43,0,29.91,29.91,0,0,1,12.34,11.64,37.71,37.71,0,0,1,0,35.54,29.85,29.85,0,0,1-12.34,11.64,40.77,40.77,0,0,1-35.43,0Zm23.74-21q2.43-2.85,2.43-8.4t-2.43-8.4a7.82,7.82,0,0,0-12,0q-2.43,2.85-2.43,8.4t2.37,8.4a7.88,7.88,0,0,0,12.1,0Z" transform="translate(-87.86 -470.62)"/><path class="cls-73" d="M669.08,523.27a22.64,22.64,0,0,1,11.81-3.41V547.3H673.6c-4.86,0-8.44.85-10.71,2.54s-3.42,4.71-3.42,9v26.74h-25.7v-65.3h25.7v12A31.26,31.26,0,0,1,669.08,523.27Z" transform="translate(-87.86 -470.62)"/><path class="cls-74" d="M786.26,503.64l-29.41,57.09v24.89H731.14V560.73l-29.41-57.09h29.41l13.09,29.07,13.08-29.07Z" transform="translate(-87.86 -470.62)"/><path class="cls-75" d="M805.37,582.38A29.85,29.85,0,0,1,793,570.74a37.63,37.63,0,0,1,0-35.54,29.91,29.91,0,0,1,12.34-11.64,40.75,40.75,0,0,1,35.42,0,30,30,0,0,1,12.34,11.64,37.63,37.63,0,0,1,0,35.54,29.91,29.91,0,0,1-12.34,11.64,40.75,40.75,0,0,1-35.42,0Zm23.73-21q2.43-2.85,2.43-8.4t-2.43-8.4a7.82,7.82,0,0,0-12,0q-2.43,2.85-2.43,8.4t2.37,8.4a7.88,7.88,0,0,0,12.1,0Z" transform="translate(-87.86 -470.62)"/><path class="cls-76" d="M934.81,520.32v65.3h-25.7v-10a23.13,23.13,0,0,1-8.05,7.53,23.67,23.67,0,0,1-12,2.89q-11.24,0-17.55-7.52t-6.31-20.38V520.32h25.59v34.62a10.45,10.45,0,0,0,2.49,7.35,9.59,9.59,0,0,0,13.38,0,10.62,10.62,0,0,0,2.43-7.35V520.32Z" transform="translate(-87.86 -470.62)"/></g></svg>