<svg xmlns="http://www.w3.org/2000/svg" xmlns:xlink="http://www.w3.org/1999/xlink" viewBox="0 0 371.83 363.13"><defs><style>.cls-1{fill:url(#New_Gradient_Swatch_2);}.cls-2{fill:url(#New_Gradient_Swatch_2-2);}.cls-3{fill:url(#New_Gradient_Swatch_2-3);}.cls-4{fill:url(#New_Gradient_Swatch_2-4);}.cls-5{fill:url(#New_Gradient_Swatch_2-5);}.cls-6{fill:url(#New_Gradient_Swatch_2-6);}.cls-7{fill:url(#New_Gradient_Swatch_2-7);}.cls-8{fill:url(#New_Gradient_Swatch_2-8);}.cls-9{fill:url(#New_Gradient_Swatch_2-9);}.cls-10{fill:url(#New_Gradient_Swatch_2-10);}.cls-11{fill:url(#New_Gradient_Swatch_2-11);}.cls-12{fill:url(#New_Gradient_Swatch_2-12);}.cls-13{fill:url(#New_Gradient_Swatch_2-13);}.cls-14{fill:url(#New_Gradient_Swatch_2-14);}.cls-15{fill:url(#New_Gradient_Swatch_2-15);}.cls-16{fill:url(#New_Gradient_Swatch_2-16);}.cls-17{fill:url(#New_Gradient_Swatch_2-17);}.cls-18{fill:url(#New_Gradient_Swatch_2-18);}.cls-19{fill:url(#New_Gradient_Swatch_2-19);}.cls-20{fill:url(#New_Gradient_Swatch_2-20);}.cls-21{fill:url(#New_Gradient_Swatch_2-21);}.cls-22{fill:url(#New_Gradient_Swatch_2-22);}.cls-23{fill:url(#New_Gradient_Swatch_2-23);}.cls-24{fill:url(#New_Gradient_Swatch_2-24);}.cls-25{fill:url(#New_Gradient_Swatch_2-25);}.cls-26{fill:url(#New_Gradient_Swatch_2-26);}.cls-27{fill:url(#New_Gradient_Swatch_2-27);}.cls-28{fill:url(#New_Gradient_Swatch_2-28);}.cls-29{fill:url(#New_Gradient_Swatch_2-29);}.cls-30{fill:url(#New_Gradient_Swatch_2-30);}.cls-31{fill:url(#New_Gradient_Swatch_2-31);}.cls-32{fill:url(#New_Gradient_Swatch_2-32);}.cls-33{fill:url(#New_Gradient_Swatch_2-33);}.cls-34{fill:url(#New_Gradient_Swatch_2-34);}.cls-35{fill:url(#New_Gradient_Swatch_2-35);}.cls-36{fill:url(#New_Gradient_Swatch_2-36);}.cls-37{fill:url(#New_Gradient_Swatch_2-37);}.cls-38{fill:url(#New_Gradient_Swatch_2-38);}.cls-39{fill:url(#New_Gradient_Swatch_2-39);}.cls-40{fill:url(#New_Gradient_Swatch_2-40);}.cls-41{fill:url(#New_Gradient_Swatch_2-41);}.cls-42{fill:url(#New_Gradient_Swatch_2-42);}.cls-43{fill:url(#New_Gradient_Swatch_2-43);}.cls-44{fill:url(#New_Gradient_Swatch_2-44);}.cls-45{fill:url(#New_Gradient_Swatch_2-45);}.cls-46{fill:url(#New_Gradient_Swatch_2-46);}.cls-47{fill:url(#New_Gradient_Swatch_2-47);}.cls-48{fill:url(#New_Gradient_Swatch_2-48);}.cls-49{fill:url(#New_Gradient_Swatch_2-49);}.cls-50{fill:url(#New_Gradient_Swatch_2-50);}.cls-51{fill:url(#New_Gradient_Swatch_2-51);}.cls-52{fill:url(#New_Gradient_Swatch_2-52);}.cls-53{fill:url(#New_Gradient_Swatch_2-53);}.cls-54{fill:url(#New_Gradient_Swatch_2-54);}.cls-55{fill:url(#New_Gradient_Swatch_2-55);}.cls-56{fill:url(#New_Gradient_Swatch_2-56);}.cls-57{fill:url(#New_Gradient_Swatch_2-57);}.cls-58{fill:url(#New_Gradient_Swatch_2-58);}.cls-59{fill:url(#New_Gradient_Swatch_2-59);}.cls-60{fill:url(#New_Gradient_Swatch_2-60);}.cls-61{fill:url(#New_Gradient_Swatch_2-61);}.cls-62{fill:url(#New_Gradient_Swatch_2-62);}.cls-63{fill:url(#New_Gradient_Swatch_2-63);}.cls-64{fill:url(#New_Gradient_Swatch_2-64);}.cls-65{fill:url(#New_Gradient_Swatch_2-65);}.cls-66{fill:url(#New_Gradient_Swatch_2-66);}.cls-67{fill:url(#New_Gradient_Swatch_2-67);}.cls-68{fill:url(#New_Gradient_Swatch_2-68);}.cls-69{fill:url(#New_Gradient_Swatch_2-69);}.cls-70{fill:url(#New_Gradient_Swatch_2-70);}.cls-71{fill:url(#New_Gradient_Swatch_2-71);}.cls-72{fill:url(#New_Gradient_Swatch_2-72);}.cls-73{fill:url(#New_Gradient_Swatch_2-73);}.cls-74{fill:url(#New_Gradient_Swatch_2-74);}.cls-75{fill:url(#New_Gradient_Swatch_2-75);}.cls-76{fill:url(#New_Gradient_Swatch_2-76);}</style><linearGradient id="New_Gradient_Swatch_2" x1="545.09" y1="868.87" x2="517.3" y2="-464.07" gradientUnits="userSpaceOnUse"><stop offset="0" stop-color="#462523"/><stop offset="0.22" stop-color="#cb9b51"/><stop offset="0.44" stop-color="#f6e27a"/><stop offset="0.5" stop-color="#f6f2c0"/><stop offset="0.56" stop-color="#f6e27a"/><stop offset="0.78" stop-color="#cb9b51"/><stop offset="1" stop-color="#462523"/></linearGradient><linearGradient id="New_Gradient_Swatch_2-2" x1="550.25" y1="868.66" x2="522.45" y2="-464.28" xlink:href="#New_Gradient_Swatch_2"/><linearGradient id="New_Gradient_Swatch_2-3" x1="550.46" y1="868.65" x2="522.66" y2="-464.29" xlink:href="#New_Gradient_Swatch_2"/><linearGradient id="New_Gradient_Swatch_2-4" x1="444.73" y1="793.76" x2="442.2" y2="-93.18" xlink:href="#New_Gradient_Swatch_2"/><linearGradient id="New_Gradient_Swatch_2-5" x1="470.04" y1="793.68" x2="467.51" y2="-93.26" xlink:href="#New_Gradient_Swatch_2"/><linearGradient id="New_Gradient_Swatch_2-6" x1="462.67" y1="793.71" x2="460.14" y2="-93.24" xlink:href="#New_Gradient_Swatch_2"/><linearGradient id="New_Gradient_Swatch_2-7" x1="451.56" y1="793.74" x2="449.03" y2="-93.2" xlink:href="#New_Gradient_Swatch_2"/><linearGradient id="New_Gradient_Swatch_2-8" x1="442.35" y1="793.76" x2="439.83" y2="-93.18" xlink:href="#New_Gradient_Swatch_2"/><linearGradient id="New_Gradient_Swatch_2-9" x1="436.03" y1="793.78" x2="433.5" y2="-93.16" xlink:href="#New_Gradient_Swatch_2"/><linearGradient id="New_Gradient_Swatch_2-10" x1="425.16" y1="793.81" x2="422.64" y2="-93.13" xlink:href="#New_Gradient_Swatch_2"/><linearGradient id="New_Gradient_Swatch_2-11" x1="423.48" y1="793.82" x2="420.95" y2="-93.12" xlink:href="#New_Gradient_Swatch_2"/><linearGradient id="New_Gradient_Swatch_2-12" x1="411.2" y1="793.85" x2="408.68" y2="-93.09" xlink:href="#New_Gradient_Swatch_2"/><linearGradient id="New_Gradient_Swatch_2-13" x1="413.93" y1="793.84" x2="411.41" y2="-93.1" xlink:href="#New_Gradient_Swatch_2"/><linearGradient id="New_Gradient_Swatch_2-14" x1="400.57" y1="793.88" x2="398.04" y2="-93.06" xlink:href="#New_Gradient_Swatch_2"/><linearGradient id="New_Gradient_Swatch_2-15" x1="407.53" y1="793.86" x2="405" y2="-93.08" xlink:href="#New_Gradient_Swatch_2"/><linearGradient id="New_Gradient_Swatch_2-16" x1="393.37" y1="793.9" x2="390.84" y2="-93.04" xlink:href="#New_Gradient_Swatch_2"/><linearGradient id="New_Gradient_Swatch_2-17" x1="404.37" y1="793.87" x2="401.84" y2="-93.07" xlink:href="#New_Gradient_Swatch_2"/><linearGradient id="New_Gradient_Swatch_2-18" x1="389.69" y1="793.91" x2="387.17" y2="-93.03" xlink:href="#New_Gradient_Swatch_2"/><linearGradient id="New_Gradient_Swatch_2-19" x1="404.16" y1="793.87" x2="401.63" y2="-93.07" xlink:href="#New_Gradient_Swatch_2"/><linearGradient id="New_Gradient_Swatch_2-20" x1="389.39" y1="793.91" x2="386.86" y2="-93.03" xlink:href="#New_Gradient_Swatch_2"/><linearGradient id="New_Gradient_Swatch_2-21" x1="407.04" y1="793.86" x2="404.51" y2="-93.08" xlink:href="#New_Gradient_Swatch_2"/><linearGradient id="New_Gradient_Swatch_2-22" x1="392.53" y1="793.91" x2="390" y2="-93.04" xlink:href="#New_Gradient_Swatch_2"/><linearGradient id="New_Gradient_Swatch_2-23" x1="413.27" y1="793.85" x2="410.74" y2="-93.1" xlink:href="#New_Gradient_Swatch_2"/><linearGradient id="New_Gradient_Swatch_2-24" x1="399.83" y1="793.88" x2="397.3" y2="-93.06" xlink:href="#New_Gradient_Swatch_2"/><linearGradient id="New_Gradient_Swatch_2-25" x1="422.96" y1="793.82" x2="420.44" y2="-93.12" xlink:href="#New_Gradient_Swatch_2"/><linearGradient id="New_Gradient_Swatch_2-26" x1="411.32" y1="793.85" x2="408.79" y2="-93.09" xlink:href="#New_Gradient_Swatch_2"/><linearGradient id="New_Gradient_Swatch_2-27" x1="436.21" y1="793.78" x2="433.68" y2="-93.16" xlink:href="#New_Gradient_Swatch_2"/><linearGradient id="New_Gradient_Swatch_2-28" x1="427.08" y1="793.81" x2="424.56" y2="-93.13" xlink:href="#New_Gradient_Swatch_2"/><linearGradient id="New_Gradient_Swatch_2-29" x1="451.97" y1="793.74" x2="449.44" y2="-93.21" xlink:href="#New_Gradient_Swatch_2"/><linearGradient id="New_Gradient_Swatch_2-30" x1="681.38" y1="864.25" x2="589.15" y2="-146.51" xlink:href="#New_Gradient_Swatch_2"/><linearGradient id="New_Gradient_Swatch_2-31" x1="638.02" y1="868.21" x2="545.79" y2="-142.55" xlink:href="#New_Gradient_Swatch_2"/><linearGradient id="New_Gradient_Swatch_2-32" x1="644.23" y1="867.64" x2="552" y2="-143.12" xlink:href="#New_Gradient_Swatch_2"/><linearGradient id="New_Gradient_Swatch_2-33" x1="657.21" y1="866.46" x2="564.98" y2="-144.3" xlink:href="#New_Gradient_Swatch_2"/><linearGradient id="New_Gradient_Swatch_2-34" x1="665.42" y1="865.71" x2="573.18" y2="-145.05" xlink:href="#New_Gradient_Swatch_2"/><linearGradient id="New_Gradient_Swatch_2-35" x1="673.86" y1="864.94" x2="581.63" y2="-145.82" xlink:href="#New_Gradient_Swatch_2"/><linearGradient id="New_Gradient_Swatch_2-36" x1="683.79" y1="864.03" x2="591.56" y2="-146.73" xlink:href="#New_Gradient_Swatch_2"/><linearGradient id="New_Gradient_Swatch_2-37" x1="687.72" y1="863.67" x2="595.49" y2="-147.09" xlink:href="#New_Gradient_Swatch_2"/><linearGradient id="New_Gradient_Swatch_2-38" x1="699.19" y1="862.63" x2="606.96" y2="-148.13" xlink:href="#New_Gradient_Swatch_2"/><linearGradient id="New_Gradient_Swatch_2-39" x1="698.76" y1="862.66" x2="606.53" y2="-148.09" xlink:href="#New_Gradient_Swatch_2"/><linearGradient id="New_Gradient_Swatch_2-40" x1="711.48" y1="861.5" x2="619.25" y2="-149.26" xlink:href="#New_Gradient_Swatch_2"/><linearGradient id="New_Gradient_Swatch_2-41" x1="706.85" y1="861.93" x2="614.62" y2="-148.83" xlink:href="#New_Gradient_Swatch_2"/><linearGradient id="New_Gradient_Swatch_2-42" x1="720.51" y1="860.68" x2="628.28" y2="-150.08" xlink:href="#New_Gradient_Swatch_2"/><linearGradient id="New_Gradient_Swatch_2-43" x1="711.79" y1="861.48" x2="619.56" y2="-149.28" xlink:href="#New_Gradient_Swatch_2"/><linearGradient id="New_Gradient_Swatch_2-44" x1="726.11" y1="860.17" x2="633.88" y2="-150.59" xlink:href="#New_Gradient_Swatch_2"/><linearGradient id="New_Gradient_Swatch_2-45" x1="713.56" y1="861.31" x2="621.33" y2="-149.44" xlink:href="#New_Gradient_Swatch_2"/><linearGradient id="New_Gradient_Swatch_2-46" x1="728.21" y1="859.98" x2="635.98" y2="-150.78" xlink:href="#New_Gradient_Swatch_2"/><linearGradient id="New_Gradient_Swatch_2-47" x1="712.4" y1="861.42" x2="620.17" y2="-149.34" xlink:href="#New_Gradient_Swatch_2"/><linearGradient id="New_Gradient_Swatch_2-48" x1="727.05" y1="860.08" x2="634.82" y2="-150.68" xlink:href="#New_Gradient_Swatch_2"/><linearGradient id="New_Gradient_Swatch_2-49" x1="707.91" y1="861.83" x2="615.68" y2="-148.93" xlink:href="#New_Gradient_Swatch_2"/><linearGradient id="New_Gradient_Swatch_2-50" x1="721.92" y1="860.55" x2="629.69" y2="-150.21" xlink:href="#New_Gradient_Swatch_2"/><linearGradient id="New_Gradient_Swatch_2-51" x1="699.9" y1="862.56" x2="607.67" y2="-148.2" xlink:href="#New_Gradient_Swatch_2"/><linearGradient id="New_Gradient_Swatch_2-52" x1="712.44" y1="861.42" x2="620.21" y2="-149.34" xlink:href="#New_Gradient_Swatch_2"/><linearGradient id="New_Gradient_Swatch_2-53" x1="688.22" y1="863.63" x2="595.99" y2="-147.13" xlink:href="#New_Gradient_Swatch_2"/><linearGradient id="New_Gradient_Swatch_2-54" x1="698.55" y1="862.68" x2="606.32" y2="-148.07" xlink:href="#New_Gradient_Swatch_2"/><linearGradient id="New_Gradient_Swatch_2-55" x1="660.43" y1="866.16" x2="568.2" y2="-144.6" xlink:href="#New_Gradient_Swatch_2"/><linearGradient id="New_Gradient_Swatch_2-56" x1="199.07" y1="-111" x2="176.33" y2="142.96" xlink:href="#New_Gradient_Swatch_2"/><linearGradient id="New_Gradient_Swatch_2-57" x1="148.24" y1="-115.55" x2="125.5" y2="138.41" xlink:href="#New_Gradient_Swatch_2"/><linearGradient id="New_Gradient_Swatch_2-58" x1="253.77" y1="-106.1" x2="231.02" y2="147.85" xlink:href="#New_Gradient_Swatch_2"/><linearGradient id="New_Gradient_Swatch_2-59" x1="532.16" y1="1321.28" x2="502.09" y2="-1090.32" xlink:href="#New_Gradient_Swatch_2"/><linearGradient id="New_Gradient_Swatch_2-60" x1="541.23" y1="1321.17" x2="511.16" y2="-1090.43" xlink:href="#New_Gradient_Swatch_2"/><linearGradient id="New_Gradient_Swatch_2-61" x1="550.85" y1="1321.05" x2="520.78" y2="-1090.55" xlink:href="#New_Gradient_Swatch_2"/><linearGradient id="New_Gradient_Swatch_2-62" x1="562.25" y1="1320.91" x2="532.19" y2="-1090.7" xlink:href="#New_Gradient_Swatch_2"/><linearGradient id="New_Gradient_Swatch_2-63" x1="569.71" y1="1320.82" x2="539.65" y2="-1090.79" xlink:href="#New_Gradient_Swatch_2"/><linearGradient id="New_Gradient_Swatch_2-64" x1="534.2" y1="1321.26" x2="504.13" y2="-1090.35" xlink:href="#New_Gradient_Swatch_2"/><linearGradient id="New_Gradient_Swatch_2-65" x1="544.18" y1="1321.13" x2="514.11" y2="-1090.47" xlink:href="#New_Gradient_Swatch_2"/><linearGradient id="New_Gradient_Swatch_2-66" x1="553.86" y1="1321.01" x2="523.79" y2="-1090.59" xlink:href="#New_Gradient_Swatch_2"/><linearGradient id="New_Gradient_Swatch_2-67" x1="563.69" y1="1320.89" x2="533.62" y2="-1090.71" xlink:href="#New_Gradient_Swatch_2"/><linearGradient id="New_Gradient_Swatch_2-68" x1="369.41" y1="959.27" x2="369.41" y2="-222.88" xlink:href="#New_Gradient_Swatch_2"/><linearGradient id="New_Gradient_Swatch_2-69" x1="408.06" y1="959.27" x2="408.06" y2="-222.88" xlink:href="#New_Gradient_Swatch_2"/><linearGradient id="New_Gradient_Swatch_2-70" x1="453.63" y1="959.27" x2="453.63" y2="-222.88" xlink:href="#New_Gradient_Swatch_2"/><linearGradient id="New_Gradient_Swatch_2-71" x1="499.95" y1="959.27" x2="499.95" y2="-222.88" xlink:href="#New_Gradient_Swatch_2"/><linearGradient id="New_Gradient_Swatch_2-72" x1="533.11" y1="959.27" x2="533.11" y2="-222.88" xlink:href="#New_Gradient_Swatch_2"/><linearGradient id="New_Gradient_Swatch_2-73" x1="570.24" y1="959.27" x2="570.24" y2="-222.88" xlink:href="#New_Gradient_Swatch_2"/><linearGradient id="New_Gradient_Swatch_2-74" x1="618.86" y1="959.27" x2="618.86" y2="-222.88" xlink:href="#New_Gradient_Swatch_2"/><linearGradient id="New_Gradient_Swatch_2-75" x1="663.23" y1="959.27" x2="663.23" y2="-222.88" xlink:href="#New_Gradient_Swatch_2"/><linearGradient id="New_Gradient_Swatch_2-76" x1="706.39" y1="959.27" x2="706.39" y2="-222.88" xlink:href="#New_Gradient_Swatch_2"/></defs><title>Logo</title><g id="OBJECTS"><path class="cls-1" d="M610.62,496.06l-28.18,11.39-33.9,13.69,0,0-.18.07-.27.09-.81.29-.47.12-.7.17-.55.09-.65.08-.59,0-.61,0h0c-.35,0-.7,0-1,0h-.16c-.3,0-.6-.08-.91-.13l-.29,0a.5.5,0,0,0-.13,0l-.68-.17-.36-.09-.81-.29c-.09,0-.19-.05-.28-.09l-93.76-37.88a12.71,12.71,0,0,1-7.34-16.13,12.44,12.44,0,0,1,16.27-7.09l83.34,33.67,1.4.57a12.69,12.69,0,0,0,9.5,0l75.34-30.44,15.7-6.35a2,2,0,0,0,.12-3.76L552.7,414.65a22,22,0,0,0-18.07,0l-90.85,41a17,17,0,0,0-.64,31.85l93.73,37.87a16.63,16.63,0,0,0,3.47,1.08l.22,0c.42.08.83.14,1.25.18l.36,0a14.91,14.91,0,0,0,1.5.08h0a16.86,16.86,0,0,0,6.38-1.25l85.87-34.68c4.16-1.68,4.88-3.18,4.88-6.94Zm-67-4.74h0Zm-98.46-36.15-.1,0,.1,0m2.89-.49-.29,0,.29,0m-1.44.18-.22,0,.22,0" transform="translate(-354.08 -307.37)"/><path class="cls-2" d="M543.66,516.31a14.29,14.29,0,0,1-4-.58l-.13-.05L449.18,479.1a1.44,1.44,0,1,1,1.08-2.66L540.57,513a11,11,0,0,0,6.2,0L634,477.82a1.44,1.44,0,1,1,1.08,2.67l-87.28,35.19-.13.05a14.36,14.36,0,0,1-4,.58" transform="translate(-354.08 -307.37)"/><path class="cls-3" d="M543.66,506.28a14,14,0,0,1-4-.59l-.13,0-90.38-36.58a1.43,1.43,0,0,1-.8-1.87,1.45,1.45,0,0,1,1.88-.8L540.57,503a10.9,10.9,0,0,0,6.2,0L634,467.79a1.44,1.44,0,1,1,1.08,2.67l-87.28,35.19-.13.05a14.36,14.36,0,0,1-4,.58" transform="translate(-354.08 -307.37)"/><path class="cls-4" d="M440,368c-6,5.06-7.34,13.3-7.34,13.3s8.35,0,14.34-5,7.33-13.3,7.33-13.3S446,363,440,368" transform="translate(-354.08 -307.37)"/><path class="cls-5" d="M473.4,564a25.83,25.83,0,0,1,4.69,14.15c0,.1-10.35-3.22-14.78-10.45a18.07,18.07,0,0,1-1.95-14.24c0,.07,7.3,4,12,10.54" transform="translate(-354.08 -307.37)"/><path class="cls-6" d="M465.23,585.79a17.79,17.79,0,0,0,12.94-8c-.11,0-9.85-3.18-18.37-2.5A23.46,23.46,0,0,0,446,581.23c-.12,0,9.93,5.81,19.28,4.56" transform="translate(-354.08 -307.37)"/><path class="cls-7" d="M455.53,555.28a25.4,25.4,0,0,1,1.6,14.43c0,.09-9-4.82-11.84-12.54a18.13,18.13,0,0,1,.89-14.09c0,.07,6.19,5.13,9.35,12.2" transform="translate(-354.08 -307.37)"/><path class="cls-8" d="M443.56,575a17.51,17.51,0,0,0,13.69-5.55c-.1,0-8.56-4.69-16.78-5.47a23.08,23.08,0,0,0-14.3,3.38c-.11,0,8.36,7.29,17.39,7.64" transform="translate(-354.08 -307.37)"/><path class="cls-9" d="M440.26,543.9A25.14,25.14,0,0,1,439,558.11c0,.1-7.66-6.17-8.94-14.14a18.1,18.1,0,0,1,3.46-13.49c0,.07,5,6,6.72,13.42" transform="translate(-354.08 -307.37)"/><path class="cls-10" d="M425.07,560.93a17.21,17.21,0,0,0,14.12-3c-.09,0-7.25-6-15-8.14a22.75,22.75,0,0,0-14.4.81c-.11,0,6.73,8.5,15.29,10.37" transform="translate(-354.08 -307.37)"/><path class="cls-11" d="M427.66,530.24a24.85,24.85,0,0,1-3.79,13.57c0,.1-6.26-7.3-6.09-15.26A17.9,17.9,0,0,1,423.53,516c0,.07,3.85,6.76,4.13,14.21" transform="translate(-354.08 -307.37)"/><path class="cls-12" d="M409.88,544.14a16.92,16.92,0,0,0,14.19-.51c-.08,0-5.88-7-13.05-10.5a22.54,22.54,0,0,0-14.15-1.72c-.1,0,5.07,9.45,13,12.73" transform="translate(-354.08 -307.37)"/><path class="cls-13" d="M417.84,514.77a24.46,24.46,0,0,1-6.07,12.54c0,.09-4.8-8.19-3.28-15.94a17.7,17.7,0,0,1,7.75-11.21c0,.07,2.62,7.3,1.6,14.61" transform="translate(-354.08 -307.37)"/><path class="cls-14" d="M398.09,525.18a16.73,16.73,0,0,0,13.92,2c-.08,0-4.49-7.87-10.91-12.51a22.55,22.55,0,0,0-13.53-4.18c-.09,0,3.35,10.12,10.52,14.71" transform="translate(-354.08 -307.37)"/><path class="cls-15" d="M410.89,497.92a23.87,23.87,0,0,1-8.06,11.18c0,.09-3.3-8.85-.53-16.16a17.37,17.37,0,0,1,9.46-9.62c0,.07,1.36,7.64-.87,14.6" transform="translate(-354.08 -307.37)"/><path class="cls-16" d="M389.81,504.6a16.69,16.69,0,0,0,13.28,4.4c-.07,0-3-8.48-8.56-14.17A22.56,22.56,0,0,0,382,488.32c-.08-.05,1.6,10.53,7.84,16.28" transform="translate(-354.08 -307.37)"/><path class="cls-17" d="M406.9,480.16a23.43,23.43,0,0,1-9.75,9.54c-.06.08-1.77-9.27,2.17-16a17.05,17.05,0,0,1,10.87-7.79c0,.06.05,7.79-3.29,14.23" transform="translate(-354.08 -307.37)"/><path class="cls-18" d="M385.15,483a16.73,16.73,0,0,0,12.26,6.7c-.05,0-1.57-8.87-6-15.46a22.82,22.82,0,0,0-11.2-8.67c-.07-.06-.19,10.67,5,17.43" transform="translate(-354.08 -307.37)"/><path class="cls-19" d="M406,461.94a23,23,0,0,1-11.14,7.67c-.07.06-.18-9.46,4.82-15.4a16.71,16.71,0,0,1,12-5.77c-.05.05-1.3,7.74-5.65,13.5" transform="translate(-354.08 -307.37)"/><path class="cls-20" d="M384.21,460.79a16.84,16.84,0,0,0,10.87,8.81c-.05-.06-.05-9-3.28-16.35a22.89,22.89,0,0,0-9.46-10.59c-.06-.08-2,10.54,1.87,18.13" transform="translate(-354.08 -307.37)"/><path class="cls-21" d="M408.17,443.72a22.38,22.38,0,0,1-12.23,5.6c-.08.06,1.46-9.4,7.42-14.43a16.45,16.45,0,0,1,12.76-3.61c-.06,0-2.69,7.49-7.95,12.44" transform="translate(-354.08 -307.37)"/><path class="cls-22" d="M387.09,438.68a16.93,16.93,0,0,0,9.11,10.69c0-.07,1.5-9-.34-16.83a23.1,23.1,0,0,0-7.34-12.24c0-.09-3.93,10.14-1.43,18.38" transform="translate(-354.08 -307.37)"/><path class="cls-23" d="M413.62,426a22.2,22.2,0,0,1-13,3.42c-.09,0,3.14-9.12,10-13.1a16.33,16.33,0,0,1,13.23-1.38c-.08,0-4.12,7.05-10.19,11.06" transform="translate(-354.08 -307.37)"/><path class="cls-24" d="M393.91,417.17a17,17,0,0,0,6.95,12.29c0-.07,3.1-8.66,2.81-16.87A23.44,23.44,0,0,0,398.85,399c0-.09-5.86,9.49-4.94,18.15" transform="translate(-354.08 -307.37)"/><path class="cls-25" d="M422.41,409.1A21.91,21.91,0,0,1,409,410.25c-.11,0,4.86-8.59,12.44-11.43a16.17,16.17,0,0,1,13.38.89c-.1,0-5.59,6.42-12.36,9.39" transform="translate(-354.08 -307.37)"/><path class="cls-26" d="M404.77,396.83a16.89,16.89,0,0,0,4.41,13.55c0-.07,4.72-8.14,6.15-16.46a23.8,23.8,0,0,0-1.9-14.51c0-.1-7.84,8.56-8.66,17.42" transform="translate(-354.08 -307.37)"/><path class="cls-27" d="M434.63,393.62A21.43,21.43,0,0,1,421,392.47c-.12,0,6.63-7.82,14.85-9.42a15.85,15.85,0,0,1,13.19,3.14c-.1,0-7.09,5.59-14.45,7.43" transform="translate(-354.08 -307.37)"/><path class="cls-28" d="M419.79,378.22c-2.78,8.72,1.52,14.43,1.45,14.43s6.39-7.4,9.71-15.59,1.5-15,1.42-15-9.85,7.37-12.58,16.18" transform="translate(-354.08 -307.37)"/><path class="cls-29" d="M507.45,581.52l-.09-1.62a99.72,99.72,0,0,1-39.5-5.92,105,105,0,0,1-34-20.3,110.37,110.37,0,0,1-36.55-72.79c-2.16-23.25.17-43.8,6.91-61.09,7.25-18.57,19.44-32.85,36.24-42.45l-.81-1.41c-17.13,9.79-29.56,24.35-36.94,43.27-6.83,17.53-9.19,38.33-7,61.83a112.06,112.06,0,0,0,37.09,73.86,106.63,106.63,0,0,0,34.49,20.6,101.25,101.25,0,0,0,40.14,6" transform="translate(-354.08 -307.37)"/><path class="cls-30" d="M640,368c6,5.06,7.34,13.3,7.34,13.3s-8.35,0-14.34-5-7.33-13.3-7.33-13.3,8.35,0,14.33,5" transform="translate(-354.08 -307.37)"/><path class="cls-31" d="M606.6,564a25.83,25.83,0,0,0-4.69,14.15c0,.1,10.35-3.22,14.78-10.45a18.07,18.07,0,0,0,1.95-14.24c0,.07-7.3,4-12,10.54" transform="translate(-354.08 -307.37)"/><path class="cls-32" d="M614.77,585.79a17.79,17.79,0,0,1-12.94-8c.11,0,9.85-3.18,18.37-2.5a23.5,23.5,0,0,1,13.85,5.91c.12,0-9.93,5.81-19.28,4.56" transform="translate(-354.08 -307.37)"/><path class="cls-33" d="M624.47,555.28a25.25,25.25,0,0,0-1.59,14.43c0,.09,9-4.82,11.83-12.54a18.13,18.13,0,0,0-.89-14.09c0,.07-6.19,5.13-9.35,12.2" transform="translate(-354.08 -307.37)"/><path class="cls-34" d="M636.44,575a17.51,17.51,0,0,1-13.69-5.55c.1,0,8.56-4.69,16.78-5.47a23.08,23.08,0,0,1,14.3,3.38c.11,0-8.36,7.29-17.39,7.64" transform="translate(-354.08 -307.37)"/><path class="cls-35" d="M639.74,543.9A25.14,25.14,0,0,0,641,558.11c0,.1,7.66-6.17,8.94-14.14a18.1,18.1,0,0,0-3.46-13.49c0,.07-5,6-6.72,13.42" transform="translate(-354.08 -307.37)"/><path class="cls-36" d="M654.93,560.93a17.21,17.21,0,0,1-14.12-3c.09,0,7.25-6,15-8.14a22.75,22.75,0,0,1,14.4.81c.11,0-6.73,8.5-15.29,10.37" transform="translate(-354.08 -307.37)"/><path class="cls-37" d="M652.34,530.24a24.85,24.85,0,0,0,3.79,13.57c0,.1,6.26-7.3,6.09-15.26A17.9,17.9,0,0,0,656.47,516c0,.07-3.85,6.76-4.13,14.21" transform="translate(-354.08 -307.37)"/><path class="cls-38" d="M670.12,544.14a16.92,16.92,0,0,1-14.19-.51c.08,0,5.88-7,13.05-10.5a22.54,22.54,0,0,1,14.15-1.72c.1,0-5.07,9.45-13,12.73" transform="translate(-354.08 -307.37)"/><path class="cls-39" d="M662.16,514.77a24.46,24.46,0,0,0,6.07,12.54c0,.09,4.8-8.19,3.28-15.94a17.7,17.7,0,0,0-7.75-11.21c0,.07-2.62,7.3-1.6,14.61" transform="translate(-354.08 -307.37)"/><path class="cls-40" d="M681.91,525.18a16.73,16.73,0,0,1-13.92,2c.08,0,4.49-7.87,10.91-12.51a22.55,22.55,0,0,1,13.53-4.18c.09,0-3.35,10.12-10.52,14.71" transform="translate(-354.08 -307.37)"/><path class="cls-41" d="M669.11,497.92a23.87,23.87,0,0,0,8.06,11.18c0,.09,3.3-8.85.53-16.16a17.37,17.37,0,0,0-9.46-9.62c0,.07-1.36,7.64.87,14.6" transform="translate(-354.08 -307.37)"/><path class="cls-42" d="M690.19,504.6a16.69,16.69,0,0,1-13.28,4.4c.07,0,3.05-8.48,8.56-14.17A22.56,22.56,0,0,1,698,488.32c.08-.05-1.6,10.53-7.84,16.28" transform="translate(-354.08 -307.37)"/><path class="cls-43" d="M673.1,480.16a23.43,23.43,0,0,0,9.75,9.54c.06.08,1.77-9.27-2.17-16a17.05,17.05,0,0,0-10.87-7.79c0,.06,0,7.79,3.29,14.23" transform="translate(-354.08 -307.37)"/><path class="cls-44" d="M694.85,483a16.73,16.73,0,0,1-12.26,6.7s1.57-8.87,6-15.46a22.82,22.82,0,0,1,11.2-8.67c.07-.06.2,10.67-5,17.43" transform="translate(-354.08 -307.37)"/><path class="cls-45" d="M674,461.94a23,23,0,0,0,11.15,7.67c.06.06.17-9.46-4.83-15.4a16.71,16.71,0,0,0-12-5.77c.05.05,1.3,7.74,5.65,13.5" transform="translate(-354.08 -307.37)"/><path class="cls-46" d="M695.79,460.79a16.84,16.84,0,0,1-10.87,8.81c.05-.06.05-9,3.28-16.35a22.89,22.89,0,0,1,9.46-10.59c.06-.08,2,10.54-1.87,18.13" transform="translate(-354.08 -307.37)"/><path class="cls-47" d="M671.83,443.72a22.38,22.38,0,0,0,12.23,5.6c.08.06-1.46-9.4-7.42-14.43a16.45,16.45,0,0,0-12.76-3.61c.07,0,2.69,7.49,8,12.44" transform="translate(-354.08 -307.37)"/><path class="cls-48" d="M692.91,438.68a16.93,16.93,0,0,1-9.11,10.69c0-.07-1.5-9,.34-16.83a23.1,23.1,0,0,1,7.34-12.24c0-.09,3.93,10.14,1.43,18.38" transform="translate(-354.08 -307.37)"/><path class="cls-49" d="M666.38,426a22.2,22.2,0,0,0,13,3.42c.09,0-3.14-9.12-10-13.1a16.33,16.33,0,0,0-13.23-1.38c.08,0,4.12,7.05,10.19,11.06" transform="translate(-354.08 -307.37)"/><path class="cls-50" d="M686.09,417.17a17,17,0,0,1-7,12.29c0-.07-3.09-8.66-2.81-16.87A23.44,23.44,0,0,1,681.15,399c0-.09,5.86,9.49,4.94,18.15" transform="translate(-354.08 -307.37)"/><path class="cls-51" d="M657.59,409.1a21.91,21.91,0,0,0,13.46,1.15c.11,0-4.86-8.59-12.44-11.43a16.17,16.17,0,0,0-13.38.89c.1,0,5.59,6.42,12.36,9.39" transform="translate(-354.08 -307.37)"/><path class="cls-52" d="M675.23,396.83a16.89,16.89,0,0,1-4.41,13.55c0-.07-4.72-8.14-6.15-16.46a23.8,23.8,0,0,1,1.9-14.51c0-.1,7.84,8.56,8.66,17.42" transform="translate(-354.08 -307.37)"/><path class="cls-53" d="M645.37,393.62A21.43,21.43,0,0,0,659,392.47c.12,0-6.63-7.82-14.85-9.42a15.85,15.85,0,0,0-13.19,3.14c.1,0,7.09,5.59,14.45,7.43" transform="translate(-354.08 -307.37)"/><path class="cls-54" d="M660.21,378.22c2.78,8.72-1.52,14.43-1.45,14.43s-6.39-7.4-9.71-15.59-1.5-15-1.42-15,9.85,7.37,12.58,16.18" transform="translate(-354.08 -307.37)"/><path class="cls-55" d="M572.55,581.52l.09-1.62a99.72,99.72,0,0,0,39.5-5.92,104.91,104.91,0,0,0,34-20.3,110.37,110.37,0,0,0,36.55-72.79c2.16-23.25-.17-43.8-6.92-61.09-7.24-18.57-19.43-32.85-36.23-42.45l.81-1.41c17.13,9.79,29.56,24.35,36.94,43.27,6.83,17.53,9.19,38.33,7,61.83a112,112,0,0,1-37.09,73.86,106.63,106.63,0,0,1-34.49,20.6,101.25,101.25,0,0,1-40.14,6" transform="translate(-354.08 -307.37)"/><polygon class="cls-56" points="187.68 0 194.58 13.99 210.02 16.23 198.85 27.13 201.49 42.5 187.68 35.24 173.86 42.5 176.5 27.13 165.33 16.23 180.77 13.99 187.68 0"/><polygon class="cls-57" points="134.49 26.05 139.59 36.38 151 38.04 142.74 46.08 144.69 57.45 134.49 52.08 124.29 57.45 126.24 46.08 117.98 38.04 129.39 36.38 134.49 26.05"/><polygon class="cls-58" points="240.86 26.05 245.96 36.38 257.37 38.04 249.11 46.08 251.06 57.45 240.86 52.08 230.66 57.45 232.61 46.08 224.35 38.04 235.76 36.38 240.86 26.05"/><path class="cls-59" d="M525.91,569.44h-5v4.66h5.59v1.4h-7.26V562.58h7V564h-5.31v4.08h5Z" transform="translate(-354.08 -307.37)"/><path class="cls-60" d="M528.42,573.47a5.92,5.92,0,0,0,3,.84c1.7,0,2.7-.9,2.7-2.2s-.69-1.9-2.43-2.57c-2.11-.75-3.42-1.84-3.42-3.66,0-2,1.67-3.51,4.18-3.51a6,6,0,0,1,2.86.63l-.46,1.36a5.16,5.16,0,0,0-2.45-.61c-1.77,0-2.44,1-2.44,1.94,0,1.2.79,1.8,2.57,2.49,2.18.84,3.3,1.9,3.3,3.79s-1.48,3.72-4.53,3.72a6.67,6.67,0,0,1-3.29-.82Z" transform="translate(-354.08 -307.37)"/><path class="cls-61" d="M540.55,564h-3.93v-1.42h9.56V564h-3.95v11.5h-1.68Z" transform="translate(-354.08 -307.37)"/><path class="cls-62" d="M547.62,562.75a24.31,24.31,0,0,1,3.54-.26c2.4,0,4.1.55,5.24,1.61a5.92,5.92,0,0,1,1.82,4.63,6.84,6.84,0,0,1-1.86,5c-1.21,1.21-3.2,1.86-5.71,1.86a26,26,0,0,1-3-.15Zm1.67,11.43a11.38,11.38,0,0,0,1.68.09c3.57,0,5.5-2,5.5-5.48,0-3-1.7-5-5.23-5a9.18,9.18,0,0,0-2,.17Z" transform="translate(-354.08 -307.37)"/><path class="cls-63" d="M559.27,574.5a1.14,1.14,0,0,1,1.15-1.21,1.21,1.21,0,1,1-1.15,1.21Z" transform="translate(-354.08 -307.37)"/><path class="cls-64" d="M521.2,598.49v-1l1.33-1.29c3.18-3,4.61-4.63,4.63-6.51a2.22,2.22,0,0,0-2.47-2.44,4.22,4.22,0,0,0-2.64,1.06l-.54-1.19a5.45,5.45,0,0,1,3.53-1.26,3.5,3.5,0,0,1,3.81,3.62c0,2.3-1.67,4.16-4.29,6.69l-1,.92v0h5.6v1.4Z" transform="translate(-354.08 -307.37)"/><path class="cls-65" d="M539.31,592.13c0,4.24-1.57,6.57-4.33,6.57-2.43,0-4.08-2.28-4.12-6.4s1.8-6.47,4.33-6.47S539.31,588.16,539.31,592.13Zm-6.76.19c0,3.24,1,5.08,2.53,5.08,1.72,0,2.55-2,2.55-5.19s-.79-5.08-2.53-5.08C533.62,587.13,532.55,588.93,532.55,592.32Z" transform="translate(-354.08 -307.37)"/><path class="cls-66" d="M540.86,598.49v-1l1.33-1.29c3.18-3,4.61-4.63,4.63-6.51a2.22,2.22,0,0,0-2.47-2.44,4.22,4.22,0,0,0-2.64,1.06l-.54-1.19a5.45,5.45,0,0,1,3.53-1.26,3.5,3.5,0,0,1,3.81,3.62c0,2.3-1.67,4.16-4.29,6.69l-1,.92v0h5.6v1.4Z" transform="translate(-354.08 -307.37)"/><path class="cls-67" d="M550.69,598.49v-1l1.33-1.29c3.18-3,4.62-4.63,4.63-6.51a2.22,2.22,0,0,0-2.47-2.44,4.22,4.22,0,0,0-2.64,1.06l-.54-1.19a5.45,5.45,0,0,1,3.53-1.26,3.5,3.5,0,0,1,3.81,3.62c0,2.3-1.67,4.16-4.29,6.69l-1,.92v0h5.6v1.4Z" transform="translate(-354.08 -307.37)"/><path class="cls-68" d="M368.5,635.56v5.65h14.29v10.84H368.5v6.5h16.25v11.5H354.08v-46h30.67v11.5Z" transform="translate(-354.08 -307.37)"/><path class="cls-69" d="M390.23,641.7a15.07,15.07,0,0,1,5.43-6.5,13.88,13.88,0,0,1,7.73-2.24,12.2,12.2,0,0,1,6.13,1.46,10,10,0,0,1,3.94,4V622h14.42v48.07H413.46v-5a10,10,0,0,1-3.94,4,12.19,12.19,0,0,1-6.13,1.45,13.8,13.8,0,0,1-7.73-2.24,15,15,0,0,1-5.43-6.49,26.42,26.42,0,0,1,0-20.07ZM412,647.19a5.31,5.31,0,0,0-7.66,0,7.68,7.68,0,0,0,0,9.09,5.34,5.34,0,0,0,7.66,0,7.64,7.64,0,0,0,0-9.09Z" transform="translate(-354.08 -307.37)"/><path class="cls-70" d="M473.16,633.41v36.64H458.74v-5.59a13,13,0,0,1-4.52,4.23,13.32,13.32,0,0,1-6.72,1.62c-4.21,0-7.48-1.41-9.85-4.22s-3.54-6.63-3.54-11.43V633.41h14.36v19.43a5.86,5.86,0,0,0,1.39,4.12,5.37,5.37,0,0,0,7.51,0,5.94,5.94,0,0,0,1.37-4.12V633.41Z" transform="translate(-354.08 -307.37)"/><path class="cls-71" d="M510.18,630.69a4.14,4.14,0,0,0-2.46.61,3.39,3.39,0,0,0-1.18,2.11h5.27v12h-5.4v24.62H492V645.43H488.1v-12H492q.13-7.14,4.52-11.07t12.31-3.93c.6,0,1.6,0,3,.13v12.27C511,630.73,510.49,630.69,510.18,630.69Z" transform="translate(-354.08 -307.37)"/><path class="cls-72" d="M523.17,668.23a16.67,16.67,0,0,1-6.91-6.53,21.13,21.13,0,0,1,0-19.94,16.73,16.73,0,0,1,6.91-6.53,22.9,22.9,0,0,1,19.88,0,16.76,16.76,0,0,1,6.92,6.53,21.13,21.13,0,0,1,0,19.94,16.69,16.69,0,0,1-6.92,6.53,22.9,22.9,0,0,1-19.88,0Zm13.32-11.79a8.84,8.84,0,0,0,0-9.42,4.39,4.39,0,0,0-6.76,0,7.06,7.06,0,0,0-1.36,4.71,7.17,7.17,0,0,0,1.33,4.71,4.42,4.42,0,0,0,6.79,0Z" transform="translate(-354.08 -307.37)"/><path class="cls-73" d="M576.83,635.07a12.73,12.73,0,0,1,6.63-1.91v15.39h-4.1c-2.72,0-4.73.48-6,1.43s-1.92,2.64-1.92,5.07v15H557V633.41h14.42v6.76A17.56,17.56,0,0,1,576.83,635.07Z" transform="translate(-354.08 -307.37)"/><path class="cls-74" d="M642.57,624.06l-16.5,32v14H611.65v-14l-16.5-32h16.5L619,640.37l7.34-16.31Z" transform="translate(-354.08 -307.37)"/><path class="cls-75" d="M653.29,668.23a16.75,16.75,0,0,1-6.92-6.53,21.13,21.13,0,0,1,0-19.94,16.82,16.82,0,0,1,6.92-6.53,22.9,22.9,0,0,1,19.88,0,16.82,16.82,0,0,1,6.92,6.53,21.13,21.13,0,0,1,0,19.94,16.75,16.75,0,0,1-6.92,6.53,22.9,22.9,0,0,1-19.88,0Zm13.32-11.79a8.84,8.84,0,0,0,0-9.42,4.39,4.39,0,0,0-6.76,0,7.06,7.06,0,0,0-1.36,4.71,7.17,7.17,0,0,0,1.33,4.71,4.42,4.42,0,0,0,6.79,0Z" transform="translate(-354.08 -307.37)"/><path class="cls-76" d="M725.92,633.41v36.64H711.5v-5.59a13,13,0,0,1-4.52,4.23,13.32,13.32,0,0,1-6.72,1.62c-4.21,0-7.48-1.41-9.85-4.22s-3.54-6.63-3.54-11.43V633.41h14.36v19.43a5.86,5.86,0,0,0,1.39,4.12,5.37,5.37,0,0,0,7.51,0,5.94,5.94,0,0,0,1.37-4.12V633.41Z" transform="translate(-354.08 -307.37)"/></g></svg>